<svg viewBox="0 0 16 17" fill="none">
<path d="M3.76562 16.3574V5.8457H0.496094V16.3574H3.76562ZM2.11328 4.43945C3.16797 4.43945 4.01172 3.56055 4.01172 2.50586C4.01172 1.48633 3.16797 0.642578 2.11328 0.642578C1.09375 0.642578 0.25 1.48633 0.25 2.50586C0.25 3.56055 1.09375 4.43945 2.11328 4.43945ZM15.9648 16.3574H16V10.5918C16 7.7793 15.3672 5.59961 12.0625 5.59961C10.4805 5.59961 9.42578 6.47852 8.96875 7.28711H8.93359V5.8457H5.80469V16.3574H9.07422V11.1543C9.07422 9.7832 9.32031 8.48242 11.0078 8.48242C12.6953 8.48242 12.7305 10.0293 12.7305 11.2598V16.3574H15.9648Z" fill="#292F36"/>
</svg>
