<svg viewBox="0 0 18 15" fill="none">
<path d="M16.1719 3.82617C16.875 3.29883 17.5078 2.66602 18 1.92773C17.3672 2.20898 16.6289 2.41992 15.8906 2.49023C16.6641 2.0332 17.2266 1.33008 17.5078 0.451172C16.8047 0.873047 15.9961 1.18945 15.1875 1.36523C14.4844 0.626953 13.5352 0.205078 12.4805 0.205078C10.4414 0.205078 8.78906 1.85742 8.78906 3.89648C8.78906 4.17773 8.82422 4.45898 8.89453 4.74023C5.83594 4.56445 3.09375 3.08789 1.26562 0.873047C0.949219 1.40039 0.773438 2.0332 0.773438 2.73633C0.773438 4.00195 1.40625 5.12695 2.42578 5.79492C1.82812 5.75977 1.23047 5.61914 0.738281 5.33789V5.37305C0.738281 7.16602 2.00391 8.64258 3.69141 8.99414C3.41016 9.06445 3.05859 9.13477 2.74219 9.13477C2.49609 9.13477 2.28516 9.09961 2.03906 9.06445C2.49609 10.541 3.86719 11.5957 5.48438 11.6309C4.21875 12.6152 2.63672 13.2129 0.914062 13.2129C0.597656 13.2129 0.316406 13.1777 0.0351562 13.1426C1.65234 14.1973 3.58594 14.7949 5.69531 14.7949C12.4805 14.7949 16.1719 9.20508 16.1719 4.31836C16.1719 4.14258 16.1719 4.00195 16.1719 3.82617Z" fill="#292F36"/>
</svg>